<svg width="338" height="59" viewBox="0 0 338 59" fill="none" xmlns="http://www.w3.org/2000/svg">
<path d="M25.2822 1.68435L26.6666 1.10709L26.2819 0.184349L25.2822 0.184349L25.2822 1.68435ZM128.458 56.5L128.377 55.0022L128.458 56.5ZM337.164 20.946C337.687 20.3031 337.589 19.3583 336.946 18.8359L326.469 10.3223C325.826 9.79981 324.881 9.89748 324.359 10.5404C323.836 11.1833 323.934 12.128 324.577 12.6505L333.89 20.2182L326.322 29.5311C325.8 30.174 325.897 31.1187 326.54 31.6411C327.183 32.1636 328.128 32.0659 328.65 31.423L337.164 20.946ZM23.8977 2.2616C30.8853 19.0205 61.551 61.645 128.54 57.9978L128.377 55.0022C62.9716 58.5633 33.299 17.014 26.6666 1.10709L23.8977 2.2616ZM128.54 57.9978C170.073 55.7365 190.533 49.8395 216.329 42.9013C242.04 35.9857 273.158 28.0049 336.154 21.4921L335.846 18.508C272.655 25.0409 241.376 33.0576 215.549 40.0042C189.807 46.9282 169.59 52.7583 128.377 55.0022L128.54 57.9978ZM25.2822 0.184349L0.924727 0.184352L0.924727 3.18435L25.2822 3.18435L25.2822 0.184349ZM0.924727 3.18435L49.9247 3.18435L49.9247 0.184346L0.924727 0.184352L0.924727 3.18435Z" fill="white"/>
</svg>
