<svg width="806" height="382" viewBox="0 0 806 382" fill="none" xmlns="http://www.w3.org/2000/svg">
<path d="M122.907 237.171C124.573 236.986 125.961 234.858 127.055 233.785C133.879 227.095 143.603 223.206 151.774 218.462C171.534 206.992 190.818 194.264 210.016 181.892C252.488 154.519 294.305 125.946 335.135 96.1798C363.168 75.7427 391.226 54.2742 415.979 29.8958C418.43 27.4818 437.493 7.47143 431.894 3.14511C429.219 1.07822 421.885 4.14556 419.619 4.96517C408.298 9.05997 397.413 14.8175 387.07 20.9224C339.639 48.9174 291.732 80.4856 252.851 119.841C235.069 137.84 218.015 157.09 203.582 177.913C194.914 190.42 187.926 204.03 180.98 217.531C174.053 230.995 167.422 244.593 159.308 257.403C147.783 275.598 134.61 292.645 120.875 309.211C100.884 333.325 77.9959 358.894 49.1735 372.448C38.7611 377.344 25.7118 381.432 14.0421 379.39C7.93798 378.321 -0.0718235 373.614 2.0636 366.268C5.04003 356.029 15.9867 346.963 23.4387 340.195C39.0241 326.039 56.8664 315.041 75.2893 304.979C144.585 267.129 220.517 243.724 296.956 225.15C375.641 206.03 455.302 191.097 534.791 175.797C606.56 161.982 677.873 146.514 749.177 130.507" stroke="white" stroke-width="3" stroke-linecap="round"/>
<path d="M215.824 220.434C218.659 220.434 214.191 222.118 218.449 221.026C228.333 218.492 237.893 212.603 246.554 207.482C262.956 197.783 277.178 185.582 290.828 172.35C295.323 167.992 299.116 163.246 303.018 158.383C304.882 156.059 307.244 153.92 308.351 151.102C308.405 150.965 309.885 147.584 308.605 148.224C301.163 151.945 294.761 162.505 290.235 168.964C278.052 186.354 265.302 206.012 259.083 226.614C257.096 233.195 251.51 248.212 260.098 252.983C267.57 257.134 278.719 245.024 283.294 240.835C294.498 230.576 304.702 217.015 311.06 203.164C312.532 199.957 317.032 187.806 309.96 187.673C302.545 187.533 295.964 195.017 291.632 200.286C286.085 207.033 280.502 216.16 281.897 225.301C284.76 244.072 308.707 224.602 313.854 217.302C318.329 210.953 323.808 201.693 323.673 193.514C323.582 187.935 316.722 191.79 314.446 193.472C308.346 197.981 289.041 213.824 302.806 221.069C318.106 229.121 333.868 207.217 335.271 194.276C335.808 189.328 332.348 185.342 327.229 186.911C321.238 188.747 313.854 197.061 311.187 202.53C309.728 205.52 307.247 212.502 312.034 214.212C319.063 216.722 328.084 213.277 333.832 209.26C340.868 204.342 344.674 197.838 346.869 189.704C348.121 185.062 344.952 183.889 341.239 186.149C338.587 187.763 336.553 191.272 337.006 194.445C337.275 196.322 341.216 194.223 341.874 193.853C350.714 188.88 357.746 179.591 363.545 171.504C370.157 162.284 375.207 152.149 381.492 142.722C383.627 139.52 385.855 136.357 388.053 133.198C388.321 132.812 390.4 129.782 390.254 130.658C389.775 133.528 387.26 136.416 385.979 138.912C381.279 148.065 377.396 157.724 373.916 167.398C364.545 193.446 359.025 220.753 354.234 247.946C350.869 267.041 348.517 285.985 342.551 304.495C338.923 315.752 335.226 333.904 323.504 340.05C309.024 347.641 291.375 327.941 288.373 315.331C284.966 301.022 289.678 286.492 297.346 274.443C310.419 253.9 328.992 238.393 348.646 224.497C369.041 210.078 390.154 197.174 411.968 185.049C418.789 181.257 426.145 177.695 432.581 173.239C445.967 163.972 402.638 188.793 393.09 201.979C391.048 204.798 387.264 213.6 392.328 215.863C400.155 219.36 411.878 211.744 417.512 207.186C428.148 198.581 437.125 188.21 443.967 176.414C445.212 174.266 450.295 169.578 447.861 170.065C447.547 170.128 447.411 170.523 447.226 170.784C445.741 172.884 443.476 176.638 442.358 178.53C439.605 183.192 436.784 187.951 434.993 193.091C433.867 196.324 430.763 205.76 434.485 208.498C439.557 212.227 453.215 196.86 456.072 193.853C459.602 190.137 462.829 186.277 465.892 182.17C467.635 179.834 471.323 176.586 472.03 173.62C473.222 168.613 461.399 175.807 460.898 176.245C450.437 185.364 456.954 199.362 470.717 194.106C478.926 190.972 485.828 184.683 489.299 176.541C491.383 171.651 493.211 163.671 485.109 165.366C480.328 166.367 473.568 170.46 472.368 175.525C471.241 180.285 474.807 185.272 479.606 185.98C485.61 186.866 493.784 181.555 498.738 178.699C499.724 178.131 512.349 169.071 506.738 167.948C502.584 167.118 497.036 169.945 493.87 172.477C493.461 172.805 489.904 175.094 491.881 175.483C499.94 177.068 510.471 169.883 516.854 165.917C530.418 157.489 543.465 147.857 548.768 132.14C550.601 126.708 550.932 121.423 551.096 115.759C551.151 113.864 550.877 106.273 554.482 106.744C557.37 107.12 558.147 111.436 558.504 113.601C560.029 122.868 560.029 132.553 560.154 141.917C560.554 171.908 556.058 201.823 541.488 228.476C530.759 248.103 513.006 268.868 491.881 277.66C485.288 280.404 476.619 280.54 469.955 277.956C458.631 273.565 458.552 259.77 460.855 249.809C462.351 243.34 463.679 240.149 467.458 234.402C478.58 217.49 494.553 202.58 509.828 189.62C546.869 158.192 588.759 134.815 634.057 117.664C689.221 96.7776 745.789 83.8849 804 75.6756" stroke="white" stroke-width="3" stroke-linecap="round"/>
<path d="M321.759 128.221C320.419 128.221 318.77 128.508 317.569 127.84C316.325 127.15 322.145 126.22 323.283 125.936" stroke="white" stroke-width="3" stroke-linecap="round"/>
<path d="M452.803 142.697C451.146 144.17 436.781 142.986 445.184 141.935" stroke="white" stroke-width="3" stroke-linecap="round"/>
</svg>
