<svg width="71" height="262" viewBox="0 0 71 262" fill="none" xmlns="http://www.w3.org/2000/svg">
<path d="M25.2822 1.68437L26.6667 1.10711L26.2819 0.184366L25.2822 0.184366L25.2822 1.68437ZM40.5 112L41.6149 110.997L40.5 112ZM48.54 260.577C48.8584 261.341 49.7365 261.703 50.5013 261.385L62.9642 256.196C63.729 255.877 64.0908 254.999 63.7724 254.234C63.4539 253.469 62.5758 253.108 61.811 253.426L50.7329 258.039L46.1203 246.961C45.8019 246.196 44.9238 245.834 44.159 246.152C43.3942 246.471 43.0324 247.349 43.3508 248.114L48.54 260.577ZM23.8977 2.26162C24.6583 4.08577 25.1676 6.76398 25.4743 10.221C25.7787 13.652 25.8748 17.7313 25.8689 22.294C25.8571 31.2942 25.4374 42.4658 25.5074 53.6014C25.5779 64.8374 26.1393 76.4215 28.1142 86.7937C30.0848 97.1438 33.4932 106.457 39.3851 113.003L41.6149 110.997C36.2568 105.043 32.9892 96.3584 31.0612 86.2326C29.1374 76.1288 28.5775 64.7589 28.5073 53.5826C28.4365 42.306 28.8567 31.6069 28.8689 22.298C28.8748 17.7061 28.7789 13.5213 28.4626 9.95587C28.1485 6.4165 27.6086 3.36618 26.6667 1.10711L23.8977 2.26162ZM39.3851 113.003C58.717 134.483 66.7053 157.134 67.047 181.334C67.3896 205.595 60.0468 231.498 48.5379 259.429L51.3116 260.571C62.8779 232.502 70.3978 206.155 70.0467 181.291C69.6947 156.366 61.433 133.017 41.6149 110.997L39.3851 113.003ZM25.2822 0.184366L0.92474 0.184369L0.924741 3.18437L25.2822 3.18437L25.2822 0.184366ZM0.924741 3.18437L49.9248 3.18436L49.9248 0.184363L0.92474 0.184369L0.924741 3.18437Z" fill="white"/>
</svg>
